<?xml version="1.0" encoding="utf-8"?>
<!-- Generator: Adobe Illustrator 22.0.1, SVG Export Plug-In . SVG Version: 6.00 Build 0)  -->
<svg version="1.1" id="Capa_1" xmlns="http://www.w3.org/2000/svg" xmlns:xlink="http://www.w3.org/1999/xlink" x="0px" y="0px"
	 viewBox="0 0 1080 740" style="enable-background:new 0 0 1080 740;" xml:space="preserve">
<style type="text/css">
	.st0{fill:#FFFFFF;}
	.st1{fill:#F15A24;}
</style>
<rect y="0" width="1080" height="742"/>
<path class="st0" d="M18.6,22.9l12.8-1.7c10.4-1.3,20.2,5,23.2,14.9C73.4,98.9,138.9,311,160.2,311c21.9,0,103.7-216.8,126-276.9
	c3.3-9,12.3-14.6,21.9-13.8l5.7,0.5c14.3,1.3,23.3,16,17.8,29.3c-28.4,68.2-103.9,247.1-134.1,294.8c-3.9,6.1-10.7,9.8-18,9.8h-40.1
	c-8.4,0-16.1-5-19.5-12.6c-21.6-48.7-99-224.7-119-292.1C-2.8,37.4,5.6,24.6,18.6,22.9z"/>
<path class="st0" d="M814.5,189.2l0.1-0.1c11.4-6.7,14-21.9,5.5-32c-17.1-20.3-50.4-48.5-103.6-48.5c-83.1,0-138.5,78.2-133.9,135.7
	s43.9,119.6,124.7,126.5c52.3,4.5,90.1-22.9,110.3-42.7c9.6-9.4,7.9-25.2-3.3-32.7l-0.3-0.2c-8-5.3-18.6-4.6-25.9,1.7
	c-16.2,14.2-47.4,35.8-80.9,27.9c-48.5-11.5-78.5-36.8-80.8-85.1c-2.2-46,25.4-89.7,90-89.7c38.8,0,59.3,18.2,69.5,32.8
	C792.5,192,804.8,194.9,814.5,189.2z"/>
<path class="st0" d="M848.3,478.1l0.3,1.5c2.5,11.7,14.1,19.1,25.7,16.3c36.3-8.6,107.7-36.2,128.4-122c0.1-0.6,0.3-1.1,0.5-1.6
	l75.7-224.2c4.6-13.8-5.6-28-20.2-28h-6.8c-9.2,0-17.3,5.8-20.2,14.4c-16.3,48.5-46.4,183.4-56.5,183.4c-8,0-43.8-132.7-62.3-182
	c-3.5-9.3-13-15-22.9-13.6l-8.3,1.1c-13.6,1.8-21.9,15.8-17,28.6l82.8,215.6c0.8,2.1,1.3,4.3,1.4,6.6c0.6,14.2-3.2,63.5-83.6,78.7
	C853.5,455.1,845.8,466.4,848.3,478.1z"/>
<path class="st0" d="M363.6,284.3c8.3,19.3,27.8,40.6,66.7,40.6c40.3,0,60.9-24.9,70-41.3c4.5-8.1,13.9-12.3,23-10.4l2.4,0.5
	c13.9,2.9,21,18.2,14.5,30.7c-14.1,26.7-45.5,65-109.9,66.5c-99.3,2.3-120.1-87.4-122.4-110.4s2.3-140.3,115.4-149.5
	c81.9-6.7,113,59,123.9,95.7c3.7,12.5-4.5,25.3-17.4,27.1L380.4,255C366.5,257,358.1,271.5,363.6,284.3z M355,219.3l146.8-21.1
	c0,0,0,0,0,0c0,0-24.4-50.3-79.8-45.7C366.6,157.2,355,219.3,355,219.3z"/>
<path class="st1" d="M52,355.8c0,0,30,298.9,496,298.9c476,0,496-298.9,496-298.9s38,362.7-494,364.6C47,722.4,52,355.8,52,355.8z"
	/>
</svg>
